<svg xmlns="http://www.w3.org/2000/svg" viewBox="0 0 512 512" role="img" aria-label="Eros favicon">
  <defs>
    <linearGradient id="bg" x1="58" y1="42" x2="452" y2="470" gradientUnits="userSpaceOnUse">
      <stop offset="0" stop-color="#1a1a2e"/>
      <stop offset="0.58" stop-color="#2a1430"/>
      <stop offset="1" stop-color="#4c0d2b"/>
    </linearGradient>
    <linearGradient id="heart" x1="140" y1="120" x2="370" y2="402" gradientUnits="userSpaceOnUse">
      <stop offset="0" stop-color="#ff9bc2"/>
      <stop offset="0.52" stop-color="#e94560"/>
      <stop offset="1" stop-color="#b51f55"/>
    </linearGradient>
    <filter id="shadow" x="-20%" y="-20%" width="140%" height="150%">
      <feDropShadow dx="0" dy="16" stdDeviation="18" flood-color="#000" flood-opacity="0.42"/>
    </filter>
  </defs>
  <rect width="512" height="512" rx="104" fill="url(#bg)"/>
  <circle cx="132" cy="112" r="112" fill="#ff9bc2" opacity="0.10"/>
  <circle cx="392" cy="390" r="142" fill="#e94560" opacity="0.10"/>
  <g filter="url(#shadow)">
    <path d="M256 420S106 318 106 216c0-58 42-96 92-96 30 0 51 17 58 31 7-14 28-31 58-31 50 0 92 38 92 96 0 102-150 204-150 204Z" fill="url(#heart)"/>
    <path d="M158 214c0-32 23-56 54-56" fill="none" stroke="#fff" stroke-width="15" stroke-linecap="round" opacity="0.22"/>
    <path d="M174 310h164" stroke="#ffe6f0" stroke-width="22" stroke-linecap="round" opacity="0.96"/>
    <path d="M206 270h100" stroke="#ffe6f0" stroke-width="22" stroke-linecap="round" opacity="0.96"/>
    <path d="M206 270v80M206 270c0-32 24-52 58-52 23 0 40 8 52 24" stroke="#ffe6f0" stroke-width="22" stroke-linecap="round" stroke-linejoin="round" fill="none"/>
  </g>
  <path d="M384 122l8 18 20 3-14 14 3 20-17-9-17 9 3-20-14-14 20-3Z" fill="#ffd6e5" opacity="0.9"/>
</svg>
